:SAMPLES-PER-SECOND 30
:FRAME-RANGE 1-1086
:FULLY-SPECIFIED
:DEGREES
272
root  -106.217 38.1476 -35.6871 -0.0353851 -5.5927 3.74501
RightUpLeg  -18.1648 6.19866 -8.56962
RightLeg  69.3213 -0.471281 -2.15188
RightFoot  -1.80451 -0.586268 6.87165
RightToes  1.21801e-010 1.2921e-014 -6.02303e-014
Spine  -4.8241 -0.0305383 -1.04843
Spine1  7.24334 0.276342 -6.04495
HEad  19.2522 28.2828 -8.79162
LeftShoulder1  1.30807 -1.4082 -21.6431
LeftArm  -2.11801 -5.14543 -57.7517
LeftForeArm  27.3544 4.9579 -12.791
LeftHand  -0.0335287 5.11839 4.31
RightShoulder  1.84604 2.5381 25.5504
RightArm  -27.1187 -3.17043 47.6464
RightForeArm  72.0253 -5.10242 2.77928
RightHand  0.239232 -7.17161 -16.6781
LeftUpLeg  -11.5053 -2.61355 -12.6902
LeftLeg  19.0818 10.4078 4.50728
LeftFoot  -9.75675 -0.053119 8.07939
LeftToes  3.79492e-011 -8.60219e-011 1.56273e-011
273
root  -106.298 38.2009 -34.1757 -0.109421 -2.46138 3.01695
RightUpLeg  -21.4651 7.03409 -7.6106
RightLeg  65.8065 -1.67911 -4.72562
RightFoot  -4.23901 -0.450323 6.78211
RightToes  1.21801e-010 1.2921e-014 -6.02303e-014
Spine  -4.52096 -0.762046 -1.49658
Spine1  6.49228 -0.66575 -4.79518
HEad  19.3488 28.3632 -8.34155
LeftShoulder1  1.50819 -2.20002 -21.2679
LeftArm  -1.15425 -7.42882 -58.4243
LeftForeArm  26.6601 2.13145 -12.8876
LeftHand  -0.0469327 4.694 4.24997
RightShoulder  1.69215 1.89664 26.5101
RightArm  -29.288 -6.67549 45.7584
RightForeArm  74.3229 -4.80272 1.54874
RightHand  0.0090289 -5.53546 -17.5207
LeftUpLeg  -8.44208 -1.54553 -12.0826
LeftLeg  18.8185 6.71189 3.08534
LeftFoot  -12.0171 0.122221 8.43177
LeftToes  3.79492e-011 -8.60219e-011 1.56273e-011
274
root  -106.373 38.181 -32.658 -0.263092 0.956711 2.36189
RightUpLeg  -24.1848 7.52088 -6.99694
RightLeg  60.6042 -3.2418 -6.70544
RightFoot  -5.43367 -0.275525 4.61947
RightToes  1.21801e-010 1.2921e-014 -6.02303e-014
Spine  -4.2764 -1.63496 -2.46332
Spine1  6.42659 -1.81825 -3.08881
HEad  18.4671 27.7258 -7.82573
LeftShoulder1  1.65918 -2.82412 -20.9231
LeftArm  -0.169963 -9.98916 -59.1668
LeftForeArm  25.7735 -0.587262 -12.8659
LeftHand  -0.0529007 4.52937 4.36426
RightShoulder  1.4057 0.951527 26.9828
RightArm  -30.679 -9.9709 44.9717
RightForeArm  74.0173 -4.69929 0.86479
RightHand  0.164437 -6.63827 -16.7559
LeftUpLeg  -5.47528 -0.842313 -11.3958
LeftLeg  18.9925 3.39534 2.20867
LeftFoot  -13.9934 0.308427 9.65653
LeftToes  3.79492e-011 -8.60219e-011 1.56273e-011
275
root  -106.405 38.1631 -31.1505 -0.221786 4.83765 1.51186
RightUpLeg  -26.0125 6.6753 -6.54964
RightLeg  52.8651 -4.65869 -6.94226
RightFoot  -6.32908 -0.176237 3.04214
RightToes  1.21801e-010 1.2921e-014 -6.02303e-014
Spine  -3.99829 -2.85278 -3.04034
Spine1  5.89832 -3.23488 -1.47676
HEad  17.4326 27.5031 -7.35576
LeftShoulder1  1.80292 -3.49492 -20.3307
LeftArm  0.817764 -11.9308 -59.839
LeftForeArm  24.7123 -3.15513 -12.6301
LeftHand  -0.067551 3.9671 4.03456
RightShoulder  1.19113 0.217129 27.7646
RightArm  -31.2818 -13.2346 43.9637
RightForeArm  72.5718 -4.72213 0.655979
RightHand  0.364133 -8.02572 -16.8184
LeftUpLeg  -2.73211 -0.997758 -10.4492
LeftLeg  19.0542 0.00872997 1.6993
LeftFoot  -15.8463 0.475956 9.64829
LeftToes  3.79492e-011 -8.60219e-011 1.56273e-011
276
root  -106.402 38.1477 -29.6046 -0.220245 7.70007 0.69693
RightUpLeg  -26.5251 6.79264 -6.24561
RightLeg  42.0537 -5.87973 -5.93
RightFoot  -6.26864 -0.226113 4.1393
RightToes  1.21801e-010 1.2921e-014 -6.02303e-014
Spine  -3.94177 -3.72184 -3.00291
Spine1  5.73802 -4.16388 -0.264161
HEad  16.2757 27.448 -6.86225
LeftShoulder1  1.81619 -3.70993 -19.6624
LeftArm  2.94965 -13.7776 -60.4213
LeftForeArm  22.5766 -5.52323 -12.4173
LeftHand  -0.0820682 3.59504 4.26788
RightShoulder  1.00078 -0.410473 28.498
RightArm  -31.9001 -16.172 43.2061
RightForeArm  72.7443 -4.6697 0.388668
RightHand  -0.0458289 -5.16661 -17.3639
LeftUpLeg  0.317284 -1.05665 -9.26888
LeftLeg  18.2985 -2.3642 1.31962
LeftFoot  -17.3084 0.627458 10.0099
LeftToes  3.79492e-011 -8.60219e-011 1.56273e-011
277
root  -106.361 38.1182 -28.0171 0.15007 9.76416 -0.0396729
RightUpLeg  -25.9353 5.94275 -5.79268
RightLeg  28.3594 -6.73698 -4.14637
RightFoot  -5.13599 -0.349335 5.79355
RightToes  1.21801e-010 1.2921e-014 -6.02303e-014
Spine  -5.07322 -4.35732 -2.7193
Spine1  6.71014 -4.86934 0.869819
HEad  15.1091 27.9504 -6.25815
LeftShoulder1  1.77961 -3.67358 -19.2432
LeftArm  4.98983 -15.5907 -60.7756
LeftForeArm  21.1052 -7.4282 -12.0518
LeftHand  -0.0814015 3.52507 4.07814
RightShoulder  0.887824 -0.763117 28.8254
RightArm  -31.5776 -18.7221 43.0645
RightForeArm  71.6112 -4.77901 0.765409
RightHand  0.172303 -6.84363 -15.2206
LeftUpLeg  3.2058 -0.718105 -7.88511
LeftLeg  16.8612 -4.50969 0.938535
LeftFoot  -18.4849 0.765028 10.4397
LeftToes  3.79492e-011 -8.60219e-011 1.56273e-011
278
root  -106.307 38.0162 -26.3958 0.779388 10.9622 -0.339249
RightUpLeg  -24.8772 3.71781 -5.0217
RightLeg  14.1557 -5.58401 -1.85106
RightFoot  -4.33725 -0.459575 7.01704
RightToes  1.21801e-010 1.2921e-014 -6.02303e-014
Spine  -6.24018 -4.62275 -2.27004
Spine1  7.3848 -5.08598 1.26872
HEad  14.6011 28.5921 -5.15381
LeftShoulder1  1.71842 -3.61341 -18.5284
LeftArm  6.64417 -16.7876 -60.9839
LeftForeArm  19.8077 -8.70237 -11.7454
LeftHand  -0.0909568 3.58059 4.83795
RightShoulder  0.779153 -1.08921 29.0252
RightArm  -31.4178 -21.1871 43.0558
RightForeArm  71.1575 -4.84258 1.03412
RightHand  0.15834 -6.78002 -14.7893
LeftUpLeg  5.95708 -0.236219 -6.8312
LeftLeg  15.2955 -6.20515 0.647018
LeftFoot  -19.5712 0.851931 10.1731
LeftToes  3.79492e-011 -8.60219e-011 1.56273e-011
279
root  -106.275 37.7879 -24.709 1.19231 12.0141 -0.205887
RightUpLeg  -23.7156 -0.775436 -3.4331
RightLeg  3.06126 -0.938825 -0.347729
RightFoot  -6.27891 -0.435347 8.86214
RightToes  1.21801e-010 1.2921e-014 -6.02303e-014
Spine  -6.56663 -4.97377 -2.70069
Spine1  7.63855 -5.49535 1.90746
HEad  13.8853 29.5905 -4.61021
LeftShoulder1  1.46129 -2.67048 -18.1096
LeftArm  8.96531 -17.719 -60.9991
LeftForeArm  18.7038 -10.047 -11.3904
LeftHand  -0.0852621 3.52458 4.32994
RightShoulder  0.647569 -1.46234 28.9349
RightArm  -30.8229 -22.7979 43.065
RightForeArm  70.4394 -4.9509 1.5071
RightHand  0.145617 -6.8729 -13.0697
LeftUpLeg  8.44171 -4.57989e-005 -6.10202
LeftLeg  15.1666 -7.55812 0.255618
LeftFoot  -20.8382 0.898656 9.28484
LeftToes  3.79492e-011 -8.60219e-011 1.56273e-011
